<svg width="47" height="47" viewBox="0 0 47 47" fill="none" xmlns="http://www.w3.org/2000/svg">
<path fill-rule="evenodd" clip-rule="evenodd" d="M9.79175 18.9313V14.3605C9.79175 11.8373 11.8373 9.79175 14.3605 9.79175H32.6377C33.8497 9.79123 35.0123 10.2724 35.8696 11.1292C36.7268 11.9861 37.2084 13.1485 37.2084 14.3605V18.9313H9.79175Z" stroke="black" stroke-width="1.5" stroke-linecap="round" stroke-linejoin="round"/>
<path d="M10.5417 18.9313C10.5417 18.5171 10.206 18.1813 9.79175 18.1813C9.37753 18.1813 9.04175 18.5171 9.04175 18.9313H10.5417ZM37.9584 30.3542C37.9584 29.94 37.6226 29.6042 37.2084 29.6042C36.7942 29.6042 36.4584 29.94 36.4584 30.3542H37.9584ZM37.9584 18.9313C37.9584 18.5171 37.6226 18.1813 37.2084 18.1813C36.7942 18.1813 36.4584 18.5171 36.4584 18.9313H37.9584ZM36.4584 30.3542C36.4584 30.7685 36.7942 31.1042 37.2084 31.1042C37.6226 31.1042 37.9584 30.7685 37.9584 30.3542H36.4584ZM37.2084 31.1042C37.6226 31.1042 37.9584 30.7685 37.9584 30.3542C37.9584 29.94 37.6226 29.6042 37.2084 29.6042V31.1042ZM23.5001 29.6042C23.0859 29.6042 22.7501 29.94 22.7501 30.3542C22.7501 30.7685 23.0859 31.1042 23.5001 31.1042V29.6042ZM22.7501 18.9313C22.7501 19.3455 23.0859 19.6813 23.5001 19.6813C23.9143 19.6813 24.2501 19.3455 24.2501 18.9313H22.7501ZM24.2501 9.79175C24.2501 9.37753 23.9143 9.04175 23.5001 9.04175C23.0859 9.04175 22.7501 9.37753 22.7501 9.79175H24.2501ZM9.04175 18.9313V30.3542H10.5417V18.9313H9.04175ZM9.04175 30.3542C9.04175 34.5539 12.4462 37.9584 16.6459 37.9584V36.4584C13.2747 36.4584 10.5417 33.7255 10.5417 30.3542H9.04175ZM16.6459 37.9584H30.3542V36.4584H16.6459V37.9584ZM30.3542 37.9584C34.5539 37.9584 37.9584 34.5539 37.9584 30.3542H36.4584C36.4584 33.7255 33.7255 36.4584 30.3542 36.4584V37.9584ZM36.4584 18.9313V30.3542H37.9584V18.9313H36.4584ZM37.2084 29.6042H23.5001V31.1042H37.2084V29.6042ZM24.2501 18.9313V9.79175H22.7501V18.9313H24.2501Z" fill="black"/>
</svg>
