<svg width="47" height="47" viewBox="0 0 47 47" fill="none" xmlns="http://www.w3.org/2000/svg">
<path fill-rule="evenodd" clip-rule="evenodd" d="M29.375 9.79175H19.5833C15.2571 9.79175 11.75 13.2989 11.75 17.6251V29.3751C11.75 33.7013 15.2571 37.2084 19.5833 37.2084H29.375C33.7012 37.2084 37.2083 33.7013 37.2083 29.3751V17.6251C37.2083 13.2989 33.7012 9.79175 29.375 9.79175Z" stroke="#A22900" stroke-width="1.5" stroke-linecap="round" stroke-linejoin="round"/>
<path d="M30.3542 18.375C30.7685 18.375 31.1042 18.0392 31.1042 17.625C31.1042 17.2108 30.7685 16.875 30.3542 16.875V18.375ZM18.6042 16.875C18.19 16.875 17.8542 17.2108 17.8542 17.625C17.8542 18.0392 18.19 18.375 18.6042 18.375V16.875ZM30.3542 24.25C30.7685 24.25 31.1042 23.9142 31.1042 23.5C31.1042 23.0858 30.7685 22.75 30.3542 22.75V24.25ZM18.6042 22.75C18.19 22.75 17.8542 23.0858 17.8542 23.5C17.8542 23.9142 18.19 24.25 18.6042 24.25V22.75ZM24.4792 30.125C24.8935 30.125 25.2292 29.7892 25.2292 29.375C25.2292 28.9608 24.8935 28.625 24.4792 28.625V30.125ZM18.6042 28.625C18.19 28.625 17.8542 28.9608 17.8542 29.375C17.8542 29.7892 18.19 30.125 18.6042 30.125V28.625ZM30.3542 16.875H18.6042V18.375H30.3542V16.875ZM30.3542 22.75H18.6042V24.25H30.3542V22.75ZM24.4792 28.625H18.6042V30.125H24.4792V28.625Z" fill="#A22900"/>
</svg>
