<svg width="50" height="50" viewBox="0 0 50 50" fill="none" xmlns="http://www.w3.org/2000/svg">
<path fill-rule="evenodd" clip-rule="evenodd" d="M37.5001 17.7376C37.7605 31.9688 29.2542 38.023 24.4313 39.4501C24.1118 39.5449 23.7717 39.5449 23.4522 39.4501C18.7084 38.0459 10.4459 32.1709 10.4167 18.4459C10.4451 17.2583 11.1138 16.1791 12.1647 15.6251C19.5063 11.4876 23.0376 10.4167 23.9355 10.4167C24.8334 10.4167 28.6438 11.5584 36.473 16.0417C37.0894 16.3875 37.4792 17.0312 37.5001 17.7376Z" stroke="black" stroke-width="1.5" stroke-linecap="round" stroke-linejoin="round"/>
<path d="M23.9585 30.2022C23.5442 30.2022 23.2085 30.538 23.2085 30.9522C23.2085 31.3664 23.5442 31.7022 23.9585 31.7022V30.2022ZM21.6147 23.3334L22.1544 22.8127C22.1284 22.7856 22.1003 22.7606 22.0705 22.7378L21.6147 23.3334ZM20.8335 21.6667L21.5828 21.6974C21.5833 21.6872 21.5835 21.677 21.5835 21.6667L20.8335 21.6667ZM23.9585 19.798C24.3727 19.798 24.7085 19.4622 24.7085 19.048C24.7085 18.6338 24.3727 18.298 23.9585 18.298V19.798ZM23.9585 31.7022C24.3727 31.7022 24.7085 31.3664 24.7085 30.9522C24.7085 30.538 24.3727 30.2022 23.9585 30.2022V31.7022ZM21.5835 26.9792C21.5835 26.565 21.2477 26.2292 20.8335 26.2292C20.4193 26.2292 20.0835 26.565 20.0835 26.9792H21.5835ZM24.7085 30.9522C24.7085 30.538 24.3727 30.2022 23.9585 30.2022C23.5442 30.2022 23.2085 30.538 23.2085 30.9522H24.7085ZM23.2085 33.3334C23.2085 33.7476 23.5442 34.0834 23.9585 34.0834C24.3727 34.0834 24.7085 33.7476 24.7085 33.3334H23.2085ZM23.9585 18.298C23.5443 18.298 23.2085 18.6338 23.2085 19.048C23.2085 19.4622 23.5443 19.798 23.9585 19.798V18.298ZM26.3335 22.6855C26.3335 23.0997 26.6692 23.4355 27.0835 23.4355C27.4977 23.4355 27.8335 23.0997 27.8335 22.6855H26.3335ZM23.2085 19.048C23.2085 19.4622 23.5442 19.798 23.9585 19.798C24.3727 19.798 24.7085 19.4622 24.7085 19.048H23.2085ZM24.7085 16.6667C24.7085 16.2525 24.3727 15.9167 23.9585 15.9167C23.5442 15.9167 23.2085 16.2525 23.2085 16.6667H24.7085ZM23.9585 31.7022C24.5781 31.7022 25.5045 31.5482 26.3029 31.06C27.1405 30.5477 27.8335 29.6605 27.8335 28.3022H26.3335C26.3335 29.0584 25.9847 29.4962 25.5203 29.7803C25.0166 30.0884 24.3805 30.2022 23.9585 30.2022V31.7022ZM27.8335 28.3022C27.8335 27.4494 27.5869 26.7736 27.1409 26.2241C26.7162 25.7007 26.1455 25.3372 25.5898 25.0312C24.4242 24.3891 23.2228 23.92 22.1544 22.8127L21.075 23.8542C22.3503 25.176 23.8834 25.8037 24.8662 26.345C25.3847 26.6307 25.7418 26.8804 25.9762 27.1693C26.1894 27.432 26.3335 27.7675 26.3335 28.3022H27.8335ZM22.0705 22.7378C21.7482 22.4912 21.5662 22.103 21.5828 21.6974L20.0841 21.6361C20.0475 22.5298 20.4485 23.3854 21.1589 23.929L22.0705 22.7378ZM21.5835 21.6667C21.5835 21.147 21.691 20.8071 21.8231 20.5808C21.9537 20.3569 22.1341 20.1995 22.3543 20.0838C22.8272 19.8352 23.4411 19.798 23.9585 19.798V18.298C23.4342 18.298 22.4855 18.3202 21.6564 18.756C21.2255 18.9825 20.82 19.3234 20.5274 19.825C20.2363 20.324 20.0835 20.9365 20.0835 21.6667H21.5835ZM23.9585 30.2022C23.6004 30.2022 23.0073 30.0582 22.5117 29.6046C22.0388 29.1718 21.5835 28.3916 21.5835 26.9792H20.0835C20.0835 28.7461 20.6698 29.9523 21.499 30.7112C22.3055 31.4492 23.2748 31.7022 23.9585 31.7022V30.2022ZM23.2085 30.9522V33.3334H24.7085V30.9522H23.2085ZM23.9585 19.798C24.3908 19.798 24.9804 19.8964 25.448 20.2641C25.881 20.6047 26.3335 21.2741 26.3335 22.6855H27.8335C27.8335 20.9177 27.2442 19.7684 26.3752 19.085C25.5407 18.4287 24.5678 18.298 23.9585 18.298V19.798ZM24.7085 19.048V16.6667H23.2085V19.048H24.7085Z" fill="black"/>
</svg>
